M48
; DRILL file {KiCad 9.0.6} date 2025-12-25T18:23:02+0700
; FORMAT={-:-/ absolute / metric / decimal}
; #@! TF.CreationDate,2025-12-25T18:23:02+07:00
; #@! TF.GenerationSoftware,Kicad,Pcbnew,9.0.6
; #@! TF.FileFunction,Plated,1,2,PTH
FMAT,2
METRIC
; #@! TA.AperFunction,Plated,PTH,ViaDrill
T1C0.300
; #@! TA.AperFunction,Plated,PTH,ViaDrill
T2C0.500
; #@! TA.AperFunction,Plated,PTH,ComponentDrill
T3C0.950
; #@! TA.AperFunction,Plated,PTH,ComponentDrill
T4C1.000
; #@! TA.AperFunction,Plated,PTH,ComponentDrill
T5C1.300
%
G90
G05
T1
X173.5Y-168.5
X173.5Y-169.5
X173.5Y-179.5
X173.5Y-180.5
X174.0Y-137.5
X174.0Y-138.5
X174.5Y-168.5
X174.5Y-169.5
X174.5Y-179.5
X174.5Y-180.5
X175.0Y-137.5
X175.0Y-138.5
X176.5Y-97.5
X176.5Y-98.5
X176.5Y-105.5
X176.5Y-106.5
X176.5Y-119.5
X176.5Y-120.5
X177.5Y-97.5
X177.5Y-98.5
X177.5Y-105.5
X177.5Y-106.5
X177.5Y-119.5
X177.5Y-120.5
X183.0Y-152.5
X183.0Y-159.0
X183.0Y-161.5
X183.399Y-150.899
X183.5Y-187.5
X184.0Y-157.0
X184.5Y-187.5
X185.562Y-162.85
X187.025Y-154.114
X187.75Y-148.199
X188.0Y-141.5
X188.0Y-161.0
X188.0Y-177.5
X188.667Y-147.283
X189.5Y-163.0
X189.655Y-141.786
X190.5Y-99.5
X190.5Y-100.5
X190.5Y-127.5
X190.5Y-128.5
X190.5Y-190.0
X190.55Y-151.95
X190.647Y-122.262
X191.0Y-110.5
X191.0Y-111.5
X191.39Y-121.519
X191.5Y-99.5
X191.5Y-100.5
X191.5Y-127.5
X191.5Y-128.5
X191.5Y-139.0
X191.5Y-190.0
X192.0Y-110.5
X192.0Y-111.5
X192.0Y-186.5
X192.338Y-140.771
X192.47Y-143.071
X192.5Y-158.5
X192.675Y-121.027
X193.251Y-143.852
X193.427Y-151.573
X193.5Y-140.5
X193.5Y-167.0
X194.102Y-142.386
X194.5Y-139.5
X194.5Y-187.0
X195.202Y-142.367
X195.35Y-138.0
X195.5Y-169.5
X195.531Y-119.868
X196.399Y-142.399
X196.5Y-164.0
X197.347Y-179.315
X197.5Y-161.0
X197.875Y-178.35
X198.15Y-152.536
X198.35Y-169.5
X199.0Y-149.0
X199.118Y-161.395
X199.15Y-138.0
X200.0Y-151.0
X200.0Y-152.0
X200.0Y-180.5
X200.5Y-179.5
X201.0Y-151.0
X201.0Y-152.0
X201.0Y-169.5
X201.5Y-148.0
X201.5Y-190.0
X201.803Y-118.949
X202.0Y-99.5
X202.0Y-100.5
X202.5Y-190.0
X203.0Y-99.5
X203.0Y-100.5
X203.0Y-181.5
X203.0Y-182.5
X203.574Y-134.574
X204.0Y-167.0
X204.0Y-181.5
X204.0Y-182.5
X204.5Y-177.5
X205.5Y-133.5
X205.5Y-180.0
X206.2Y-150.936
X206.495Y-181.01
X206.5Y-106.0
X206.5Y-107.0
X207.0Y-149.5
X207.5Y-106.0
X207.5Y-107.0
X208.434Y-146.934
X208.5Y-134.5
X208.65Y-145.5
X209.0Y-121.5
X209.0Y-122.5
X209.0Y-129.5
X209.35Y-151.109
X209.5Y-142.5
X209.5Y-144.0
X210.0Y-121.5
X210.0Y-122.5
X210.263Y-132.042
X211.0Y-161.5
X211.0Y-169.5
X211.0Y-186.5
X211.149Y-170.851
X211.5Y-132.5
X211.5Y-145.0
X212.0Y-151.08
X212.5Y-99.5
X212.5Y-100.5
X212.5Y-161.5
X212.5Y-190.0
X213.0Y-116.0
X213.5Y-99.5
X213.5Y-100.5
X213.5Y-190.0
X215.0Y-130.0
X215.7Y-147.5
X216.0Y-138.5
X216.65Y-130.5
X217.145Y-142.943
X218.0Y-124.5
X218.0Y-135.5
X218.137Y-177.462
X218.335Y-178.862
X219.0Y-107.5
X219.0Y-108.5
X219.5Y-147.5
X219.715Y-138.569
X219.827Y-145.624
X220.0Y-107.5
X220.0Y-108.5
X220.0Y-140.0
X220.5Y-132.5
X220.5Y-133.5
X221.5Y-132.5
X221.5Y-133.5
X222.0Y-138.0
X222.0Y-190.0
X223.0Y-190.0
X223.5Y-177.5
X224.0Y-117.0
X224.0Y-132.0
X226.0Y-178.5
X226.417Y-150.714
X226.5Y-138.5
X227.0Y-168.0
X232.0Y-109.5
X234.0Y-130.0
X234.0Y-131.0
X234.5Y-174.5
X234.5Y-175.5
X235.0Y-130.0
X235.0Y-131.0
X235.0Y-138.5
X235.0Y-139.5
X235.0Y-181.5
X235.0Y-182.5
X235.5Y-174.5
X235.5Y-175.5
X236.0Y-138.5
X236.0Y-139.5
X236.0Y-181.5
X236.0Y-182.5
T2
X183.0Y-175.0
X185.5Y-120.0
X186.348Y-167.999
X192.95Y-124.5
X193.5Y-122.0
X199.923Y-122.577
X202.972Y-138.63
X205.5Y-135.5
X205.5Y-142.5
X207.5Y-119.649
X207.5Y-136.5
X210.0Y-133.5
X212.0Y-126.5
X215.677Y-125.639
T3
X186.75Y-156.475
X186.75Y-164.975
X186.75Y-172.975
X186.75Y-182.475
X189.25Y-156.475
X189.25Y-164.975
X189.25Y-172.975
X189.25Y-182.475
X191.75Y-156.475
X191.75Y-164.975
X191.75Y-172.975
X191.75Y-182.475
X194.25Y-156.475
X194.25Y-164.975
X194.25Y-172.975
X194.25Y-182.475
X201.25Y-156.475
X201.25Y-164.975
X201.25Y-172.975
X203.75Y-156.475
X203.75Y-164.975
X203.75Y-172.975
X206.25Y-156.475
X206.25Y-164.975
X206.25Y-172.975
X208.75Y-156.475
X208.75Y-164.975
X208.75Y-172.975
X215.75Y-156.475
X215.75Y-164.975
X215.75Y-172.975
X215.75Y-182.475
X218.25Y-156.475
X218.25Y-164.975
X218.25Y-172.975
X218.25Y-182.475
X220.75Y-156.475
X220.75Y-164.975
X220.75Y-172.975
X220.75Y-182.475
X223.25Y-156.475
X223.25Y-164.975
X223.25Y-172.975
X223.25Y-182.475
T4
X178.25Y-125.975
X178.25Y-128.515
X178.25Y-131.055
X178.25Y-133.595
X178.25Y-136.135
X178.25Y-138.675
X178.25Y-141.215
X178.25Y-143.755
X178.25Y-146.295
X178.25Y-148.835
X178.25Y-151.375
X178.25Y-153.915
X178.25Y-156.455
X178.25Y-158.995
X178.25Y-161.535
X178.25Y-164.075
X178.25Y-166.615
X178.25Y-169.155
X178.25Y-171.695
X178.25Y-174.235
X178.25Y-176.775
X178.25Y-179.315
X178.25Y-181.855
X178.25Y-184.395
X178.25Y-186.935
X180.25Y-99.975
X180.25Y-116.975
X180.79Y-125.975
X180.79Y-128.515
X180.79Y-131.055
X180.79Y-133.595
X180.79Y-136.135
X180.79Y-138.675
X180.79Y-141.215
X180.79Y-143.755
X180.79Y-146.295
X180.79Y-148.835
X180.79Y-151.375
X180.79Y-153.915
X180.79Y-156.455
X180.79Y-158.995
X180.79Y-161.535
X180.79Y-164.075
X180.79Y-166.615
X180.79Y-169.155
X180.79Y-171.695
X180.79Y-174.235
X180.79Y-176.775
X180.79Y-179.315
X180.79Y-181.855
X180.79Y-184.395
X180.79Y-186.935
X219.75Y-99.975
X219.75Y-116.975
X229.05Y-125.975
X229.05Y-128.515
X229.05Y-131.055
X229.05Y-133.595
X229.05Y-136.135
X229.05Y-138.675
X229.05Y-141.215
X229.05Y-143.755
X229.05Y-146.295
X229.05Y-148.835
X229.05Y-151.375
X229.05Y-153.915
X229.05Y-156.455
X229.05Y-158.995
X229.05Y-161.535
X229.05Y-164.075
X229.05Y-166.615
X229.05Y-169.155
X229.05Y-171.695
X229.05Y-174.235
X229.05Y-176.775
X229.05Y-179.315
X229.05Y-181.855
X229.05Y-184.395
X229.05Y-186.935
X231.59Y-125.975
X231.59Y-128.515
X231.59Y-131.055
X231.59Y-133.595
X231.59Y-136.135
X231.59Y-138.675
X231.59Y-141.215
X231.59Y-143.755
X231.59Y-146.295
X231.59Y-148.835
X231.59Y-151.375
X231.59Y-153.915
X231.59Y-156.455
X231.59Y-158.995
X231.59Y-161.535
X231.59Y-164.075
X231.59Y-166.615
X231.59Y-169.155
X231.59Y-171.695
X231.59Y-174.235
X231.59Y-176.775
X231.59Y-179.315
X231.59Y-181.855
X231.59Y-184.395
X231.59Y-186.935
T5
X226.205Y-99.802
X231.285Y-99.802
M30
