%TF.GenerationSoftware,KiCad,Pcbnew,9.0.6*%
%TF.CreationDate,2025-12-25T18:23:02+07:00*%
%TF.ProjectId,f4_v2,66345f76-322e-46b6-9963-61645f706362,rev?*%
%TF.SameCoordinates,Original*%
%TF.FileFunction,Drillmap*%
%TF.FilePolarity,Positive*%
%FSLAX45Y45*%
G04 Gerber Fmt 4.5, Leading zero omitted, Abs format (unit mm)*
G04 Created by KiCad (PCBNEW 9.0.6) date 2025-12-25 18:23:02*
%MOMM*%
%LPD*%
G01*
G04 APERTURE LIST*
%ADD10C,0.050000*%
%ADD11C,0.200000*%
%ADD12C,0.320000*%
G04 APERTURE END LIST*
D10*
X17150000Y-19200000D02*
G75*
G02*
X16850000Y-18900000I0J300000D01*
G01*
X24150000Y-18900000D02*
G75*
G02*
X23850000Y-19200000I-300000J0D01*
G01*
X16850000Y-9650000D02*
G75*
G02*
X17150000Y-9350000I300000J0D01*
G01*
X23850000Y-9350000D02*
G75*
G02*
X24150000Y-9650000I0J-300000D01*
G01*
X16850000Y-18900000D02*
X16850000Y-9650000D01*
X23850000Y-19200000D02*
X17150000Y-19200000D01*
X24150000Y-9650000D02*
X24150000Y-18900000D01*
X17150000Y-9350000D02*
X23850000Y-9350000D01*
D11*
D12*
X17040000Y-9540000D02*
X17360000Y-9860000D01*
X17360000Y-9540000D02*
X17040000Y-9860000D01*
X17040000Y-18690000D02*
X17360000Y-19010000D01*
X17360000Y-18690000D02*
X17040000Y-19010000D01*
X23640000Y-9540000D02*
X23960000Y-9860000D01*
X23960000Y-9540000D02*
X23640000Y-9860000D01*
X23640000Y-18690000D02*
X23960000Y-19010000D01*
X23960000Y-18690000D02*
X23640000Y-19010000D01*
D11*
X17108277Y-19513984D02*
X17108277Y-19313984D01*
X17108277Y-19313984D02*
X17155896Y-19313984D01*
X17155896Y-19313984D02*
X17184467Y-19323508D01*
X17184467Y-19323508D02*
X17203515Y-19342555D01*
X17203515Y-19342555D02*
X17213039Y-19361603D01*
X17213039Y-19361603D02*
X17222563Y-19399698D01*
X17222563Y-19399698D02*
X17222563Y-19428270D01*
X17222563Y-19428270D02*
X17213039Y-19466365D01*
X17213039Y-19466365D02*
X17203515Y-19485412D01*
X17203515Y-19485412D02*
X17184467Y-19504460D01*
X17184467Y-19504460D02*
X17155896Y-19513984D01*
X17155896Y-19513984D02*
X17108277Y-19513984D01*
X17308277Y-19513984D02*
X17308277Y-19380650D01*
X17308277Y-19418746D02*
X17317801Y-19399698D01*
X17317801Y-19399698D02*
X17327324Y-19390174D01*
X17327324Y-19390174D02*
X17346372Y-19380650D01*
X17346372Y-19380650D02*
X17365420Y-19380650D01*
X17432086Y-19513984D02*
X17432086Y-19380650D01*
X17432086Y-19313984D02*
X17422563Y-19323508D01*
X17422563Y-19323508D02*
X17432086Y-19333031D01*
X17432086Y-19333031D02*
X17441610Y-19323508D01*
X17441610Y-19323508D02*
X17432086Y-19313984D01*
X17432086Y-19313984D02*
X17432086Y-19333031D01*
X17555896Y-19513984D02*
X17536848Y-19504460D01*
X17536848Y-19504460D02*
X17527324Y-19485412D01*
X17527324Y-19485412D02*
X17527324Y-19313984D01*
X17660658Y-19513984D02*
X17641610Y-19504460D01*
X17641610Y-19504460D02*
X17632086Y-19485412D01*
X17632086Y-19485412D02*
X17632086Y-19313984D01*
X17889229Y-19513984D02*
X17889229Y-19313984D01*
X17889229Y-19313984D02*
X17955896Y-19456841D01*
X17955896Y-19456841D02*
X18022563Y-19313984D01*
X18022563Y-19313984D02*
X18022563Y-19513984D01*
X18203515Y-19513984D02*
X18203515Y-19409222D01*
X18203515Y-19409222D02*
X18193991Y-19390174D01*
X18193991Y-19390174D02*
X18174944Y-19380650D01*
X18174944Y-19380650D02*
X18136848Y-19380650D01*
X18136848Y-19380650D02*
X18117801Y-19390174D01*
X18203515Y-19504460D02*
X18184467Y-19513984D01*
X18184467Y-19513984D02*
X18136848Y-19513984D01*
X18136848Y-19513984D02*
X18117801Y-19504460D01*
X18117801Y-19504460D02*
X18108277Y-19485412D01*
X18108277Y-19485412D02*
X18108277Y-19466365D01*
X18108277Y-19466365D02*
X18117801Y-19447317D01*
X18117801Y-19447317D02*
X18136848Y-19437793D01*
X18136848Y-19437793D02*
X18184467Y-19437793D01*
X18184467Y-19437793D02*
X18203515Y-19428270D01*
X18298753Y-19380650D02*
X18298753Y-19580650D01*
X18298753Y-19390174D02*
X18317801Y-19380650D01*
X18317801Y-19380650D02*
X18355896Y-19380650D01*
X18355896Y-19380650D02*
X18374944Y-19390174D01*
X18374944Y-19390174D02*
X18384467Y-19399698D01*
X18384467Y-19399698D02*
X18393991Y-19418746D01*
X18393991Y-19418746D02*
X18393991Y-19475889D01*
X18393991Y-19475889D02*
X18384467Y-19494936D01*
X18384467Y-19494936D02*
X18374944Y-19504460D01*
X18374944Y-19504460D02*
X18355896Y-19513984D01*
X18355896Y-19513984D02*
X18317801Y-19513984D01*
X18317801Y-19513984D02*
X18298753Y-19504460D01*
X18479705Y-19494936D02*
X18489229Y-19504460D01*
X18489229Y-19504460D02*
X18479705Y-19513984D01*
X18479705Y-19513984D02*
X18470182Y-19504460D01*
X18470182Y-19504460D02*
X18479705Y-19494936D01*
X18479705Y-19494936D02*
X18479705Y-19513984D01*
X18479705Y-19390174D02*
X18489229Y-19399698D01*
X18489229Y-19399698D02*
X18479705Y-19409222D01*
X18479705Y-19409222D02*
X18470182Y-19399698D01*
X18470182Y-19399698D02*
X18479705Y-19390174D01*
X18479705Y-19390174D02*
X18479705Y-19409222D01*
X16647500Y-19742500D02*
X16847500Y-19942500D01*
X16847500Y-19742500D02*
X16647500Y-19942500D01*
X17089229Y-19733984D02*
X17213039Y-19733984D01*
X17213039Y-19733984D02*
X17146372Y-19810174D01*
X17146372Y-19810174D02*
X17174944Y-19810174D01*
X17174944Y-19810174D02*
X17193991Y-19819698D01*
X17193991Y-19819698D02*
X17203515Y-19829222D01*
X17203515Y-19829222D02*
X17213039Y-19848270D01*
X17213039Y-19848270D02*
X17213039Y-19895889D01*
X17213039Y-19895889D02*
X17203515Y-19914936D01*
X17203515Y-19914936D02*
X17193991Y-19924460D01*
X17193991Y-19924460D02*
X17174944Y-19933984D01*
X17174944Y-19933984D02*
X17117801Y-19933984D01*
X17117801Y-19933984D02*
X17098753Y-19924460D01*
X17098753Y-19924460D02*
X17089229Y-19914936D01*
X17298753Y-19914936D02*
X17308277Y-19924460D01*
X17308277Y-19924460D02*
X17298753Y-19933984D01*
X17298753Y-19933984D02*
X17289229Y-19924460D01*
X17289229Y-19924460D02*
X17298753Y-19914936D01*
X17298753Y-19914936D02*
X17298753Y-19933984D01*
X17384467Y-19753031D02*
X17393991Y-19743508D01*
X17393991Y-19743508D02*
X17413039Y-19733984D01*
X17413039Y-19733984D02*
X17460658Y-19733984D01*
X17460658Y-19733984D02*
X17479705Y-19743508D01*
X17479705Y-19743508D02*
X17489229Y-19753031D01*
X17489229Y-19753031D02*
X17498753Y-19772079D01*
X17498753Y-19772079D02*
X17498753Y-19791127D01*
X17498753Y-19791127D02*
X17489229Y-19819698D01*
X17489229Y-19819698D02*
X17374944Y-19933984D01*
X17374944Y-19933984D02*
X17498753Y-19933984D01*
X17622563Y-19733984D02*
X17641610Y-19733984D01*
X17641610Y-19733984D02*
X17660658Y-19743508D01*
X17660658Y-19743508D02*
X17670182Y-19753031D01*
X17670182Y-19753031D02*
X17679705Y-19772079D01*
X17679705Y-19772079D02*
X17689229Y-19810174D01*
X17689229Y-19810174D02*
X17689229Y-19857793D01*
X17689229Y-19857793D02*
X17679705Y-19895889D01*
X17679705Y-19895889D02*
X17670182Y-19914936D01*
X17670182Y-19914936D02*
X17660658Y-19924460D01*
X17660658Y-19924460D02*
X17641610Y-19933984D01*
X17641610Y-19933984D02*
X17622563Y-19933984D01*
X17622563Y-19933984D02*
X17603515Y-19924460D01*
X17603515Y-19924460D02*
X17593991Y-19914936D01*
X17593991Y-19914936D02*
X17584467Y-19895889D01*
X17584467Y-19895889D02*
X17574944Y-19857793D01*
X17574944Y-19857793D02*
X17574944Y-19810174D01*
X17574944Y-19810174D02*
X17584467Y-19772079D01*
X17584467Y-19772079D02*
X17593991Y-19753031D01*
X17593991Y-19753031D02*
X17603515Y-19743508D01*
X17603515Y-19743508D02*
X17622563Y-19733984D01*
X17813039Y-19733984D02*
X17832086Y-19733984D01*
X17832086Y-19733984D02*
X17851134Y-19743508D01*
X17851134Y-19743508D02*
X17860658Y-19753031D01*
X17860658Y-19753031D02*
X17870182Y-19772079D01*
X17870182Y-19772079D02*
X17879705Y-19810174D01*
X17879705Y-19810174D02*
X17879705Y-19857793D01*
X17879705Y-19857793D02*
X17870182Y-19895889D01*
X17870182Y-19895889D02*
X17860658Y-19914936D01*
X17860658Y-19914936D02*
X17851134Y-19924460D01*
X17851134Y-19924460D02*
X17832086Y-19933984D01*
X17832086Y-19933984D02*
X17813039Y-19933984D01*
X17813039Y-19933984D02*
X17793991Y-19924460D01*
X17793991Y-19924460D02*
X17784467Y-19914936D01*
X17784467Y-19914936D02*
X17774944Y-19895889D01*
X17774944Y-19895889D02*
X17765420Y-19857793D01*
X17765420Y-19857793D02*
X17765420Y-19810174D01*
X17765420Y-19810174D02*
X17774944Y-19772079D01*
X17774944Y-19772079D02*
X17784467Y-19753031D01*
X17784467Y-19753031D02*
X17793991Y-19743508D01*
X17793991Y-19743508D02*
X17813039Y-19733984D01*
X17965420Y-19933984D02*
X17965420Y-19800650D01*
X17965420Y-19819698D02*
X17974944Y-19810174D01*
X17974944Y-19810174D02*
X17993991Y-19800650D01*
X17993991Y-19800650D02*
X18022563Y-19800650D01*
X18022563Y-19800650D02*
X18041610Y-19810174D01*
X18041610Y-19810174D02*
X18051134Y-19829222D01*
X18051134Y-19829222D02*
X18051134Y-19933984D01*
X18051134Y-19829222D02*
X18060658Y-19810174D01*
X18060658Y-19810174D02*
X18079705Y-19800650D01*
X18079705Y-19800650D02*
X18108277Y-19800650D01*
X18108277Y-19800650D02*
X18127325Y-19810174D01*
X18127325Y-19810174D02*
X18136848Y-19829222D01*
X18136848Y-19829222D02*
X18136848Y-19933984D01*
X18232086Y-19933984D02*
X18232086Y-19800650D01*
X18232086Y-19819698D02*
X18241610Y-19810174D01*
X18241610Y-19810174D02*
X18260658Y-19800650D01*
X18260658Y-19800650D02*
X18289229Y-19800650D01*
X18289229Y-19800650D02*
X18308277Y-19810174D01*
X18308277Y-19810174D02*
X18317801Y-19829222D01*
X18317801Y-19829222D02*
X18317801Y-19933984D01*
X18317801Y-19829222D02*
X18327325Y-19810174D01*
X18327325Y-19810174D02*
X18346372Y-19800650D01*
X18346372Y-19800650D02*
X18374944Y-19800650D01*
X18374944Y-19800650D02*
X18393991Y-19810174D01*
X18393991Y-19810174D02*
X18403515Y-19829222D01*
X18403515Y-19829222D02*
X18403515Y-19933984D01*
X18793991Y-19724460D02*
X18622563Y-19981603D01*
X19051134Y-19733984D02*
X19070182Y-19733984D01*
X19070182Y-19733984D02*
X19089229Y-19743508D01*
X19089229Y-19743508D02*
X19098753Y-19753031D01*
X19098753Y-19753031D02*
X19108277Y-19772079D01*
X19108277Y-19772079D02*
X19117801Y-19810174D01*
X19117801Y-19810174D02*
X19117801Y-19857793D01*
X19117801Y-19857793D02*
X19108277Y-19895889D01*
X19108277Y-19895889D02*
X19098753Y-19914936D01*
X19098753Y-19914936D02*
X19089229Y-19924460D01*
X19089229Y-19924460D02*
X19070182Y-19933984D01*
X19070182Y-19933984D02*
X19051134Y-19933984D01*
X19051134Y-19933984D02*
X19032087Y-19924460D01*
X19032087Y-19924460D02*
X19022563Y-19914936D01*
X19022563Y-19914936D02*
X19013039Y-19895889D01*
X19013039Y-19895889D02*
X19003515Y-19857793D01*
X19003515Y-19857793D02*
X19003515Y-19810174D01*
X19003515Y-19810174D02*
X19013039Y-19772079D01*
X19013039Y-19772079D02*
X19022563Y-19753031D01*
X19022563Y-19753031D02*
X19032087Y-19743508D01*
X19032087Y-19743508D02*
X19051134Y-19733984D01*
X19203515Y-19914936D02*
X19213039Y-19924460D01*
X19213039Y-19924460D02*
X19203515Y-19933984D01*
X19203515Y-19933984D02*
X19193991Y-19924460D01*
X19193991Y-19924460D02*
X19203515Y-19914936D01*
X19203515Y-19914936D02*
X19203515Y-19933984D01*
X19403515Y-19933984D02*
X19289229Y-19933984D01*
X19346372Y-19933984D02*
X19346372Y-19733984D01*
X19346372Y-19733984D02*
X19327325Y-19762555D01*
X19327325Y-19762555D02*
X19308277Y-19781603D01*
X19308277Y-19781603D02*
X19289229Y-19791127D01*
X19479706Y-19753031D02*
X19489229Y-19743508D01*
X19489229Y-19743508D02*
X19508277Y-19733984D01*
X19508277Y-19733984D02*
X19555896Y-19733984D01*
X19555896Y-19733984D02*
X19574944Y-19743508D01*
X19574944Y-19743508D02*
X19584468Y-19753031D01*
X19584468Y-19753031D02*
X19593991Y-19772079D01*
X19593991Y-19772079D02*
X19593991Y-19791127D01*
X19593991Y-19791127D02*
X19584468Y-19819698D01*
X19584468Y-19819698D02*
X19470182Y-19933984D01*
X19470182Y-19933984D02*
X19593991Y-19933984D01*
X19765420Y-19733984D02*
X19727325Y-19733984D01*
X19727325Y-19733984D02*
X19708277Y-19743508D01*
X19708277Y-19743508D02*
X19698753Y-19753031D01*
X19698753Y-19753031D02*
X19679706Y-19781603D01*
X19679706Y-19781603D02*
X19670182Y-19819698D01*
X19670182Y-19819698D02*
X19670182Y-19895889D01*
X19670182Y-19895889D02*
X19679706Y-19914936D01*
X19679706Y-19914936D02*
X19689229Y-19924460D01*
X19689229Y-19924460D02*
X19708277Y-19933984D01*
X19708277Y-19933984D02*
X19746372Y-19933984D01*
X19746372Y-19933984D02*
X19765420Y-19924460D01*
X19765420Y-19924460D02*
X19774944Y-19914936D01*
X19774944Y-19914936D02*
X19784468Y-19895889D01*
X19784468Y-19895889D02*
X19784468Y-19848270D01*
X19784468Y-19848270D02*
X19774944Y-19829222D01*
X19774944Y-19829222D02*
X19765420Y-19819698D01*
X19765420Y-19819698D02*
X19746372Y-19810174D01*
X19746372Y-19810174D02*
X19708277Y-19810174D01*
X19708277Y-19810174D02*
X19689229Y-19819698D01*
X19689229Y-19819698D02*
X19679706Y-19829222D01*
X19679706Y-19829222D02*
X19670182Y-19848270D01*
X19908277Y-19733984D02*
X19927325Y-19733984D01*
X19927325Y-19733984D02*
X19946372Y-19743508D01*
X19946372Y-19743508D02*
X19955896Y-19753031D01*
X19955896Y-19753031D02*
X19965420Y-19772079D01*
X19965420Y-19772079D02*
X19974944Y-19810174D01*
X19974944Y-19810174D02*
X19974944Y-19857793D01*
X19974944Y-19857793D02*
X19965420Y-19895889D01*
X19965420Y-19895889D02*
X19955896Y-19914936D01*
X19955896Y-19914936D02*
X19946372Y-19924460D01*
X19946372Y-19924460D02*
X19927325Y-19933984D01*
X19927325Y-19933984D02*
X19908277Y-19933984D01*
X19908277Y-19933984D02*
X19889229Y-19924460D01*
X19889229Y-19924460D02*
X19879706Y-19914936D01*
X19879706Y-19914936D02*
X19870182Y-19895889D01*
X19870182Y-19895889D02*
X19860658Y-19857793D01*
X19860658Y-19857793D02*
X19860658Y-19810174D01*
X19860658Y-19810174D02*
X19870182Y-19772079D01*
X19870182Y-19772079D02*
X19879706Y-19753031D01*
X19879706Y-19753031D02*
X19889229Y-19743508D01*
X19889229Y-19743508D02*
X19908277Y-19733984D01*
X20051134Y-19733984D02*
X20051134Y-19772079D01*
X20127325Y-19733984D02*
X20127325Y-19772079D01*
X20422563Y-20010174D02*
X20413039Y-20000650D01*
X20413039Y-20000650D02*
X20393991Y-19972079D01*
X20393991Y-19972079D02*
X20384468Y-19953031D01*
X20384468Y-19953031D02*
X20374944Y-19924460D01*
X20374944Y-19924460D02*
X20365420Y-19876841D01*
X20365420Y-19876841D02*
X20365420Y-19838746D01*
X20365420Y-19838746D02*
X20374944Y-19791127D01*
X20374944Y-19791127D02*
X20384468Y-19762555D01*
X20384468Y-19762555D02*
X20393991Y-19743508D01*
X20393991Y-19743508D02*
X20413039Y-19714936D01*
X20413039Y-19714936D02*
X20422563Y-19705412D01*
X20584468Y-19800650D02*
X20584468Y-19933984D01*
X20536849Y-19724460D02*
X20489230Y-19867317D01*
X20489230Y-19867317D02*
X20613039Y-19867317D01*
X20841611Y-19933984D02*
X20841611Y-19733984D01*
X20927325Y-19933984D02*
X20927325Y-19829222D01*
X20927325Y-19829222D02*
X20917801Y-19810174D01*
X20917801Y-19810174D02*
X20898753Y-19800650D01*
X20898753Y-19800650D02*
X20870182Y-19800650D01*
X20870182Y-19800650D02*
X20851134Y-19810174D01*
X20851134Y-19810174D02*
X20841611Y-19819698D01*
X21051134Y-19933984D02*
X21032087Y-19924460D01*
X21032087Y-19924460D02*
X21022563Y-19914936D01*
X21022563Y-19914936D02*
X21013039Y-19895889D01*
X21013039Y-19895889D02*
X21013039Y-19838746D01*
X21013039Y-19838746D02*
X21022563Y-19819698D01*
X21022563Y-19819698D02*
X21032087Y-19810174D01*
X21032087Y-19810174D02*
X21051134Y-19800650D01*
X21051134Y-19800650D02*
X21079706Y-19800650D01*
X21079706Y-19800650D02*
X21098753Y-19810174D01*
X21098753Y-19810174D02*
X21108277Y-19819698D01*
X21108277Y-19819698D02*
X21117801Y-19838746D01*
X21117801Y-19838746D02*
X21117801Y-19895889D01*
X21117801Y-19895889D02*
X21108277Y-19914936D01*
X21108277Y-19914936D02*
X21098753Y-19924460D01*
X21098753Y-19924460D02*
X21079706Y-19933984D01*
X21079706Y-19933984D02*
X21051134Y-19933984D01*
X21232087Y-19933984D02*
X21213039Y-19924460D01*
X21213039Y-19924460D02*
X21203515Y-19905412D01*
X21203515Y-19905412D02*
X21203515Y-19733984D01*
X21384468Y-19924460D02*
X21365420Y-19933984D01*
X21365420Y-19933984D02*
X21327325Y-19933984D01*
X21327325Y-19933984D02*
X21308277Y-19924460D01*
X21308277Y-19924460D02*
X21298753Y-19905412D01*
X21298753Y-19905412D02*
X21298753Y-19829222D01*
X21298753Y-19829222D02*
X21308277Y-19810174D01*
X21308277Y-19810174D02*
X21327325Y-19800650D01*
X21327325Y-19800650D02*
X21365420Y-19800650D01*
X21365420Y-19800650D02*
X21384468Y-19810174D01*
X21384468Y-19810174D02*
X21393992Y-19829222D01*
X21393992Y-19829222D02*
X21393992Y-19848270D01*
X21393992Y-19848270D02*
X21298753Y-19867317D01*
X21470182Y-19924460D02*
X21489230Y-19933984D01*
X21489230Y-19933984D02*
X21527325Y-19933984D01*
X21527325Y-19933984D02*
X21546373Y-19924460D01*
X21546373Y-19924460D02*
X21555896Y-19905412D01*
X21555896Y-19905412D02*
X21555896Y-19895889D01*
X21555896Y-19895889D02*
X21546373Y-19876841D01*
X21546373Y-19876841D02*
X21527325Y-19867317D01*
X21527325Y-19867317D02*
X21498753Y-19867317D01*
X21498753Y-19867317D02*
X21479706Y-19857793D01*
X21479706Y-19857793D02*
X21470182Y-19838746D01*
X21470182Y-19838746D02*
X21470182Y-19829222D01*
X21470182Y-19829222D02*
X21479706Y-19810174D01*
X21479706Y-19810174D02*
X21498753Y-19800650D01*
X21498753Y-19800650D02*
X21527325Y-19800650D01*
X21527325Y-19800650D02*
X21546373Y-19810174D01*
X21622563Y-20010174D02*
X21632087Y-20000650D01*
X21632087Y-20000650D02*
X21651134Y-19972079D01*
X21651134Y-19972079D02*
X21660658Y-19953031D01*
X21660658Y-19953031D02*
X21670182Y-19924460D01*
X21670182Y-19924460D02*
X21679706Y-19876841D01*
X21679706Y-19876841D02*
X21679706Y-19838746D01*
X21679706Y-19838746D02*
X21670182Y-19791127D01*
X21670182Y-19791127D02*
X21660658Y-19762555D01*
X21660658Y-19762555D02*
X21651134Y-19743508D01*
X21651134Y-19743508D02*
X21632087Y-19714936D01*
X21632087Y-19714936D02*
X21622563Y-19705412D01*
X21984468Y-20010174D02*
X21974944Y-20000650D01*
X21974944Y-20000650D02*
X21955896Y-19972079D01*
X21955896Y-19972079D02*
X21946373Y-19953031D01*
X21946373Y-19953031D02*
X21936849Y-19924460D01*
X21936849Y-19924460D02*
X21927325Y-19876841D01*
X21927325Y-19876841D02*
X21927325Y-19838746D01*
X21927325Y-19838746D02*
X21936849Y-19791127D01*
X21936849Y-19791127D02*
X21946373Y-19762555D01*
X21946373Y-19762555D02*
X21955896Y-19743508D01*
X21955896Y-19743508D02*
X21974944Y-19714936D01*
X21974944Y-19714936D02*
X21984468Y-19705412D01*
X22060658Y-19800650D02*
X22060658Y-19933984D01*
X22060658Y-19819698D02*
X22070182Y-19810174D01*
X22070182Y-19810174D02*
X22089230Y-19800650D01*
X22089230Y-19800650D02*
X22117801Y-19800650D01*
X22117801Y-19800650D02*
X22136849Y-19810174D01*
X22136849Y-19810174D02*
X22146373Y-19829222D01*
X22146373Y-19829222D02*
X22146373Y-19933984D01*
X22270182Y-19933984D02*
X22251134Y-19924460D01*
X22251134Y-19924460D02*
X22241611Y-19914936D01*
X22241611Y-19914936D02*
X22232087Y-19895889D01*
X22232087Y-19895889D02*
X22232087Y-19838746D01*
X22232087Y-19838746D02*
X22241611Y-19819698D01*
X22241611Y-19819698D02*
X22251134Y-19810174D01*
X22251134Y-19810174D02*
X22270182Y-19800650D01*
X22270182Y-19800650D02*
X22298754Y-19800650D01*
X22298754Y-19800650D02*
X22317801Y-19810174D01*
X22317801Y-19810174D02*
X22327325Y-19819698D01*
X22327325Y-19819698D02*
X22336849Y-19838746D01*
X22336849Y-19838746D02*
X22336849Y-19895889D01*
X22336849Y-19895889D02*
X22327325Y-19914936D01*
X22327325Y-19914936D02*
X22317801Y-19924460D01*
X22317801Y-19924460D02*
X22298754Y-19933984D01*
X22298754Y-19933984D02*
X22270182Y-19933984D01*
X22393992Y-19800650D02*
X22470182Y-19800650D01*
X22422563Y-19733984D02*
X22422563Y-19905412D01*
X22422563Y-19905412D02*
X22432087Y-19924460D01*
X22432087Y-19924460D02*
X22451134Y-19933984D01*
X22451134Y-19933984D02*
X22470182Y-19933984D01*
X22689230Y-19800650D02*
X22689230Y-20000650D01*
X22689230Y-19810174D02*
X22708277Y-19800650D01*
X22708277Y-19800650D02*
X22746373Y-19800650D01*
X22746373Y-19800650D02*
X22765420Y-19810174D01*
X22765420Y-19810174D02*
X22774944Y-19819698D01*
X22774944Y-19819698D02*
X22784468Y-19838746D01*
X22784468Y-19838746D02*
X22784468Y-19895889D01*
X22784468Y-19895889D02*
X22774944Y-19914936D01*
X22774944Y-19914936D02*
X22765420Y-19924460D01*
X22765420Y-19924460D02*
X22746373Y-19933984D01*
X22746373Y-19933984D02*
X22708277Y-19933984D01*
X22708277Y-19933984D02*
X22689230Y-19924460D01*
X22898753Y-19933984D02*
X22879706Y-19924460D01*
X22879706Y-19924460D02*
X22870182Y-19905412D01*
X22870182Y-19905412D02*
X22870182Y-19733984D01*
X23060658Y-19933984D02*
X23060658Y-19829222D01*
X23060658Y-19829222D02*
X23051134Y-19810174D01*
X23051134Y-19810174D02*
X23032087Y-19800650D01*
X23032087Y-19800650D02*
X22993992Y-19800650D01*
X22993992Y-19800650D02*
X22974944Y-19810174D01*
X23060658Y-19924460D02*
X23041611Y-19933984D01*
X23041611Y-19933984D02*
X22993992Y-19933984D01*
X22993992Y-19933984D02*
X22974944Y-19924460D01*
X22974944Y-19924460D02*
X22965420Y-19905412D01*
X22965420Y-19905412D02*
X22965420Y-19886365D01*
X22965420Y-19886365D02*
X22974944Y-19867317D01*
X22974944Y-19867317D02*
X22993992Y-19857793D01*
X22993992Y-19857793D02*
X23041611Y-19857793D01*
X23041611Y-19857793D02*
X23060658Y-19848270D01*
X23127325Y-19800650D02*
X23203515Y-19800650D01*
X23155896Y-19733984D02*
X23155896Y-19905412D01*
X23155896Y-19905412D02*
X23165420Y-19924460D01*
X23165420Y-19924460D02*
X23184468Y-19933984D01*
X23184468Y-19933984D02*
X23203515Y-19933984D01*
X23346373Y-19924460D02*
X23327325Y-19933984D01*
X23327325Y-19933984D02*
X23289230Y-19933984D01*
X23289230Y-19933984D02*
X23270182Y-19924460D01*
X23270182Y-19924460D02*
X23260658Y-19905412D01*
X23260658Y-19905412D02*
X23260658Y-19829222D01*
X23260658Y-19829222D02*
X23270182Y-19810174D01*
X23270182Y-19810174D02*
X23289230Y-19800650D01*
X23289230Y-19800650D02*
X23327325Y-19800650D01*
X23327325Y-19800650D02*
X23346373Y-19810174D01*
X23346373Y-19810174D02*
X23355896Y-19829222D01*
X23355896Y-19829222D02*
X23355896Y-19848270D01*
X23355896Y-19848270D02*
X23260658Y-19867317D01*
X23527325Y-19933984D02*
X23527325Y-19733984D01*
X23527325Y-19924460D02*
X23508277Y-19933984D01*
X23508277Y-19933984D02*
X23470182Y-19933984D01*
X23470182Y-19933984D02*
X23451134Y-19924460D01*
X23451134Y-19924460D02*
X23441611Y-19914936D01*
X23441611Y-19914936D02*
X23432087Y-19895889D01*
X23432087Y-19895889D02*
X23432087Y-19838746D01*
X23432087Y-19838746D02*
X23441611Y-19819698D01*
X23441611Y-19819698D02*
X23451134Y-19810174D01*
X23451134Y-19810174D02*
X23470182Y-19800650D01*
X23470182Y-19800650D02*
X23508277Y-19800650D01*
X23508277Y-19800650D02*
X23527325Y-19810174D01*
X23603515Y-20010174D02*
X23613039Y-20000650D01*
X23613039Y-20000650D02*
X23632087Y-19972079D01*
X23632087Y-19972079D02*
X23641611Y-19953031D01*
X23641611Y-19953031D02*
X23651134Y-19924460D01*
X23651134Y-19924460D02*
X23660658Y-19876841D01*
X23660658Y-19876841D02*
X23660658Y-19838746D01*
X23660658Y-19838746D02*
X23651134Y-19791127D01*
X23651134Y-19791127D02*
X23641611Y-19762555D01*
X23641611Y-19762555D02*
X23632087Y-19743508D01*
X23632087Y-19743508D02*
X23613039Y-19714936D01*
X23613039Y-19714936D02*
X23603515Y-19705412D01*
M02*
