%TF.GenerationSoftware,KiCad,Pcbnew,9.0.6*%
%TF.CreationDate,2025-12-25T18:22:47+07:00*%
%TF.ProjectId,f4_v2,66345f76-322e-46b6-9963-61645f706362,rev?*%
%TF.SameCoordinates,Original*%
%TF.FileFunction,Soldermask,Bot*%
%TF.FilePolarity,Negative*%
%FSLAX46Y46*%
G04 Gerber Fmt 4.6, Leading zero omitted, Abs format (unit mm)*
G04 Created by KiCad (PCBNEW 9.0.6) date 2025-12-25 18:22:47*
%MOMM*%
%LPD*%
G01*
G04 APERTURE LIST*
G04 Aperture macros list*
%AMRoundRect*
0 Rectangle with rounded corners*
0 $1 Rounding radius*
0 $2 $3 $4 $5 $6 $7 $8 $9 X,Y pos of 4 corners*
0 Add a 4 corners polygon primitive as box body*
4,1,4,$2,$3,$4,$5,$6,$7,$8,$9,$2,$3,0*
0 Add four circle primitives for the rounded corners*
1,1,$1+$1,$2,$3*
1,1,$1+$1,$4,$5*
1,1,$1+$1,$6,$7*
1,1,$1+$1,$8,$9*
0 Add four rect primitives between the rounded corners*
20,1,$1+$1,$2,$3,$4,$5,0*
20,1,$1+$1,$4,$5,$6,$7,0*
20,1,$1+$1,$6,$7,$8,$9,0*
20,1,$1+$1,$8,$9,$2,$3,0*%
G04 Aperture macros list end*
%ADD10O,1.700000X1.950000*%
%ADD11RoundRect,0.250000X0.600000X0.725000X-0.600000X0.725000X-0.600000X-0.725000X0.600000X-0.725000X0*%
%ADD12C,1.712000*%
%ADD13RoundRect,0.102000X-0.754000X-0.754000X0.754000X-0.754000X0.754000X0.754000X-0.754000X0.754000X0*%
%ADD14C,3.200000*%
%ADD15RoundRect,0.250000X0.262500X0.450000X-0.262500X0.450000X-0.262500X-0.450000X0.262500X-0.450000X0*%
%ADD16RoundRect,0.250000X0.450000X-0.262500X0.450000X0.262500X-0.450000X0.262500X-0.450000X-0.262500X0*%
%ADD17RoundRect,0.250000X-0.475000X0.250000X-0.475000X-0.250000X0.475000X-0.250000X0.475000X0.250000X0*%
%ADD18R,1.700000X1.700000*%
%ADD19RoundRect,0.100000X0.637500X0.100000X-0.637500X0.100000X-0.637500X-0.100000X0.637500X-0.100000X0*%
%ADD20RoundRect,0.250000X-1.000000X-0.650000X1.000000X-0.650000X1.000000X0.650000X-1.000000X0.650000X0*%
%ADD21RoundRect,0.250000X-1.050000X-1.050000X1.050000X-1.050000X1.050000X1.050000X-1.050000X1.050000X0*%
%ADD22C,2.600000*%
G04 APERTURE END LIST*
D10*
%TO.C,J_USART3*%
X215750000Y-182475000D03*
X218250000Y-182475000D03*
X220750000Y-182475000D03*
D11*
X223250000Y-182475000D03*
%TD*%
D10*
%TO.C,J_ENC1*%
X201250000Y-156475000D03*
X203750000Y-156475000D03*
X206250000Y-156475000D03*
D11*
X208750000Y-156475000D03*
%TD*%
D10*
%TO.C,J_ENC2*%
X201250000Y-164975000D03*
X203750000Y-164975000D03*
X206250000Y-164975000D03*
D11*
X208750000Y-164975000D03*
%TD*%
D10*
%TO.C,J_ENC3*%
X201250000Y-172975000D03*
X203750000Y-172975000D03*
X206250000Y-172975000D03*
D11*
X208750000Y-172975000D03*
%TD*%
D10*
%TO.C,J_M1*%
X186750000Y-156475000D03*
X189250000Y-156475000D03*
X191750000Y-156475000D03*
D11*
X194250000Y-156475000D03*
%TD*%
D10*
%TO.C,J_M2*%
X186750000Y-164975000D03*
X189250000Y-164975000D03*
X191750000Y-164975000D03*
D11*
X194250000Y-164975000D03*
%TD*%
D12*
%TO.C,U2*%
X231590000Y-186935000D03*
X229050000Y-186935000D03*
X231590000Y-184395000D03*
X229050000Y-184395000D03*
X231590000Y-181855000D03*
X229050000Y-181855000D03*
X231590000Y-179315000D03*
X229050000Y-179315000D03*
X231590000Y-176775000D03*
X229050000Y-176775000D03*
X231590000Y-174235000D03*
X229050000Y-174235000D03*
X231590000Y-171695000D03*
X229050000Y-171695000D03*
X231590000Y-169155000D03*
X229050000Y-169155000D03*
X231590000Y-166615000D03*
X229050000Y-166615000D03*
X231590000Y-164075000D03*
X229050000Y-164075000D03*
X231590000Y-161535000D03*
X229050000Y-161535000D03*
X231590000Y-158995000D03*
X229050000Y-158995000D03*
X231590000Y-156455000D03*
X229050000Y-156455000D03*
X231590000Y-153915000D03*
X229050000Y-153915000D03*
X231590000Y-151375000D03*
X229050000Y-151375000D03*
X231590000Y-148835000D03*
X229050000Y-148835000D03*
X231590000Y-146295000D03*
X229050000Y-146295000D03*
X231590000Y-143755000D03*
X229050000Y-143755000D03*
X231590000Y-141215000D03*
X229050000Y-141215000D03*
X231590000Y-138675000D03*
X229050000Y-138675000D03*
X231590000Y-136135000D03*
X229050000Y-136135000D03*
X231590000Y-133595000D03*
X229050000Y-133595000D03*
X231590000Y-131055000D03*
X229050000Y-131055000D03*
X231590000Y-128515000D03*
X229050000Y-128515000D03*
X231590000Y-125975000D03*
D13*
X229050000Y-125975000D03*
D12*
X180790000Y-186935000D03*
X178250000Y-186935000D03*
X180790000Y-184395000D03*
X178250000Y-184395000D03*
X180790000Y-181855000D03*
X178250000Y-181855000D03*
X180790000Y-179315000D03*
X178250000Y-179315000D03*
X180790000Y-176775000D03*
X178250000Y-176775000D03*
X180790000Y-174235000D03*
X178250000Y-174235000D03*
X180790000Y-171695000D03*
X178250000Y-171695000D03*
X180790000Y-169155000D03*
X178250000Y-169155000D03*
X180790000Y-166615000D03*
X178250000Y-166615000D03*
X180790000Y-164075000D03*
X178250000Y-164075000D03*
X180790000Y-161535000D03*
X178250000Y-161535000D03*
X180790000Y-158995000D03*
X178250000Y-158995000D03*
X180790000Y-156455000D03*
X178250000Y-156455000D03*
X180790000Y-153915000D03*
X178250000Y-153915000D03*
X180790000Y-151375000D03*
X178250000Y-151375000D03*
X180790000Y-148835000D03*
X178250000Y-148835000D03*
X180790000Y-146295000D03*
X178250000Y-146295000D03*
X180790000Y-143755000D03*
X178250000Y-143755000D03*
X180790000Y-141215000D03*
X178250000Y-141215000D03*
X180790000Y-138675000D03*
X178250000Y-138675000D03*
X180790000Y-136135000D03*
X178250000Y-136135000D03*
X180790000Y-133595000D03*
X178250000Y-133595000D03*
X180790000Y-131055000D03*
X178250000Y-131055000D03*
X180790000Y-128515000D03*
X178250000Y-128515000D03*
X180790000Y-125975000D03*
D13*
X178250000Y-125975000D03*
%TD*%
D11*
%TO.C,J_M3*%
X194250000Y-172975000D03*
D10*
X191750000Y-172975000D03*
X189250000Y-172975000D03*
X186750000Y-172975000D03*
%TD*%
D11*
%TO.C,GPIO_OUTPUT3*%
X223250000Y-172975000D03*
D10*
X220750000Y-172975000D03*
X218250000Y-172975000D03*
X215750000Y-172975000D03*
%TD*%
D11*
%TO.C,GPIO_OUTPUT2*%
X223250000Y-164975000D03*
D10*
X220750000Y-164975000D03*
X218250000Y-164975000D03*
X215750000Y-164975000D03*
%TD*%
D11*
%TO.C,GPIO_OUTPUT1*%
X223250000Y-156475000D03*
D10*
X220750000Y-156475000D03*
X218250000Y-156475000D03*
X215750000Y-156475000D03*
%TD*%
D14*
%TO.C,H2*%
X238000000Y-97000000D03*
%TD*%
%TO.C,H4*%
X238000000Y-188500000D03*
%TD*%
%TO.C,H3*%
X172000000Y-188500000D03*
%TD*%
%TO.C,H1*%
X172000000Y-97000000D03*
%TD*%
D15*
%TO.C,R7*%
X198387500Y-120125000D03*
X196562500Y-120125000D03*
%TD*%
%TO.C,R11*%
X198387500Y-131975000D03*
X196562500Y-131975000D03*
%TD*%
%TO.C,R15*%
X198250000Y-143975000D03*
X196425000Y-143975000D03*
%TD*%
D16*
%TO.C,R4*%
X204000000Y-186412500D03*
X204000000Y-184587500D03*
%TD*%
D17*
%TO.C,C6*%
X209765000Y-139050000D03*
X209765000Y-140950000D03*
%TD*%
%TO.C,C1*%
X214500000Y-126550000D03*
X214500000Y-128450000D03*
%TD*%
D18*
%TO.C,IN(+)*%
X219750000Y-99975000D03*
%TD*%
D16*
%TO.C,R3*%
X206500000Y-186412500D03*
X206500000Y-184587500D03*
%TD*%
D15*
%TO.C,R8*%
X198387500Y-123075000D03*
X196562500Y-123075000D03*
%TD*%
%TO.C,R13*%
X198250000Y-137975000D03*
X196425000Y-137975000D03*
%TD*%
D18*
%TO.C,OUT(-)*%
X180250000Y-116975000D03*
%TD*%
D15*
%TO.C,R12*%
X198300000Y-134975000D03*
X196475000Y-134975000D03*
%TD*%
%TO.C,R10*%
X198387500Y-128975000D03*
X196562500Y-128975000D03*
%TD*%
D19*
%TO.C,U3*%
X207300000Y-124475000D03*
X207300000Y-125125000D03*
X207300000Y-125775000D03*
X207300000Y-126425000D03*
X207300000Y-127075000D03*
X207300000Y-127725000D03*
X207300000Y-128375000D03*
X207300000Y-129025000D03*
X207300000Y-129675000D03*
X207300000Y-130325000D03*
X201575000Y-130325000D03*
X201575000Y-129675000D03*
X201575000Y-129025000D03*
X201575000Y-128375000D03*
X201575000Y-127725000D03*
X201575000Y-127075000D03*
X201575000Y-126425000D03*
X201575000Y-125775000D03*
X201575000Y-125125000D03*
X201575000Y-124475000D03*
%TD*%
D15*
%TO.C,R14*%
X198250000Y-140975000D03*
X196425000Y-140975000D03*
%TD*%
D11*
%TO.C,J_USART2*%
X194250000Y-182475000D03*
D10*
X191750000Y-182475000D03*
X189250000Y-182475000D03*
X186750000Y-182475000D03*
%TD*%
D15*
%TO.C,R9*%
X198387500Y-126025000D03*
X196562500Y-126025000D03*
%TD*%
D20*
%TO.C,D2*%
X227250000Y-116975000D03*
X231250000Y-116975000D03*
%TD*%
D21*
%TO.C,J_PWR1*%
X226205000Y-99802500D03*
D22*
X231285000Y-99802500D03*
%TD*%
D18*
%TO.C,IN(-)*%
X219750000Y-116975000D03*
%TD*%
%TO.C,OUT(+)*%
X180250000Y-99975000D03*
%TD*%
D19*
%TO.C,U1*%
X207015000Y-137730000D03*
X207015000Y-138380000D03*
X207015000Y-139030000D03*
X207015000Y-139680000D03*
X207015000Y-140330000D03*
X207015000Y-140980000D03*
X207015000Y-141630000D03*
X207015000Y-142280000D03*
X207015000Y-142930000D03*
X207015000Y-143580000D03*
X201290000Y-143580000D03*
X201290000Y-142930000D03*
X201290000Y-142280000D03*
X201290000Y-141630000D03*
X201290000Y-140980000D03*
X201290000Y-140330000D03*
X201290000Y-139680000D03*
X201290000Y-139030000D03*
X201290000Y-138380000D03*
X201290000Y-137730000D03*
%TD*%
M02*
